<svg width="27" height="25" viewBox="0 0 27 25" fill="none" xmlns="http://www.w3.org/2000/svg">
<path d="M1 22.6992V8.97412H8.66987V22.6992C8.23928 23.8833 7.32428 24.1793 6.9206 24.1793H2.48015C1.26912 24.1793 1.13456 23.1028 1 22.6992Z" stroke="#C233FF" stroke-width="0.9"/>
<path d="M1 7.35938V5.61011H8.66987V7.35938H1Z" stroke="#C233FF" stroke-width="0.9"/>
<path d="M1 2.78443V3.99546H8.53531V2.64987C8.42767 1.57339 7.41399 1.12486 6.9206 1.03516H2.74927C1.34985 1.25045 1 2.29104 1 2.78443Z" stroke="#C233FF" stroke-width="0.9"/>
<path d="M18.7627 2.51544V16.2405H26.4326V2.51544C26.002 1.33132 25.087 1.03529 24.6833 1.03529H20.2428C19.0318 1.03529 18.8973 2.11177 18.7627 2.51544Z" stroke="#C233FF" stroke-width="0.9"/>
<path d="M18.7627 17.8552V19.6045H26.4326V17.8552H18.7627Z" stroke="#C233FF" stroke-width="0.9"/>
<path d="M18.7627 22.4302V21.2191H26.298V22.5647C26.1904 23.6412 25.1767 24.0897 24.6833 24.1794H20.512C19.1125 23.9641 18.7627 22.9236 18.7627 22.4302Z" stroke="#C233FF" stroke-width="0.9"/>
<path d="M10.5537 22.4301V2.78443C10.5537 1.38501 11.7199 1.03516 12.303 1.03516H15.3978C16.3667 1.1428 16.6986 2.24619 16.7434 2.78443V22.4301C16.7434 23.8295 15.8464 24.1793 15.3978 24.1793H11.8993C10.9305 24.0717 10.5986 22.9683 10.5537 22.4301Z" stroke="#C233FF" stroke-width="0.9"/>
</svg>
