<svg width="64" height="65" viewBox="0 0 64 65" fill="none" xmlns="http://www.w3.org/2000/svg">
<rect y="0.0341797" width="64" height="64" rx="10" fill="#12130F" fill-opacity="0.9"/>
<path d="M31 48H30V49H31V48ZM31 33H32V32H31V33ZM33 48V49H34V48H33ZM33 33V32H32V33H33ZM48 33V34H49V33H48ZM48 31H49V30H48V31ZM33 31H32V32H33V31ZM33 16H34V15H33V16ZM31 16V15H30V16H31ZM31 31V32H32V31H31ZM16 31V30H15V31H16ZM16 33H15V34H16V33ZM32 48V33H30V48H32ZM33 47H31V49H33V47ZM32 33V48H34V33H32ZM48 32H33V34H48V32ZM47 31V33H49V31H47ZM33 32H48V30H33V32ZM32 16V31H34V16H32ZM31 17H33V15H31V17ZM32 31V16H30V31H32ZM16 32H31V30H16V32ZM17 33V31H15V33H17ZM31 32H16V34H31V32Z" fill="#C233FF"/>
</svg>
