<svg width="56" height="56" viewBox="0 0 56 56" fill="none" xmlns="http://www.w3.org/2000/svg">
<g filter="url(#filter0_i_238_201)">
<rect width="56" height="56" rx="28" fill="#C233FF"/>
<path d="M40.4695 25.6702L24.3856 15.8558C23.4048 15.2551 22.2279 15.2551 21.2081 15.8159C20.2273 16.3767 19.5996 17.4181 19.5996 18.6199V38.2888C19.5996 39.4503 20.1879 40.4921 21.2081 41.0928C21.6787 41.3734 22.228 41.5335 22.738 41.5335C23.2872 41.5335 23.8364 41.3734 24.3465 41.0529L40.4697 31.1984C41.4112 30.5976 41.9996 29.5962 41.9996 28.4343C41.9996 27.3126 41.4113 26.2713 40.4697 25.6702L40.4695 25.6702ZM38.8613 28.4344L22.7774 38.2888V18.5799L38.8613 28.4344Z" fill="#F8F8F8"/>
</g>
<defs>
<filter id="filter0_i_238_201" x="0" y="0" width="56" height="60" filterUnits="userSpaceOnUse" color-interpolation-filters="sRGB">
<feFlood flood-opacity="0" result="BackgroundImageFix"/>
<feBlend mode="normal" in="SourceGraphic" in2="BackgroundImageFix" result="shape"/>
<feColorMatrix in="SourceAlpha" type="matrix" values="0 0 0 0 0 0 0 0 0 0 0 0 0 0 0 0 0 0 127 0" result="hardAlpha"/>
<feOffset dy="4"/>
<feGaussianBlur stdDeviation="2"/>
<feComposite in2="hardAlpha" operator="arithmetic" k2="-1" k3="1"/>
<feColorMatrix type="matrix" values="0 0 0 0 0 0 0 0 0 0 0 0 0 0 0 0 0 0 0.25 0"/>
<feBlend mode="normal" in2="shape" result="effect1_innerShadow_238_201"/>
</filter>
</defs>
</svg>
