<svg width="56" height="56" viewBox="0 0 56 56" fill="none" xmlns="http://www.w3.org/2000/svg">
<g filter="url(#filter0_i_39_100)">
<rect width="56" height="56" rx="28" fill="#C233FF"/>
<path d="M40.47 25.6702L24.3861 15.8558C23.4053 15.2551 22.2284 15.2551 21.2086 15.8159C20.2278 16.3767 19.6001 17.4181 19.6001 18.6199V38.2888C19.6001 39.4503 20.1884 40.4921 21.2086 41.0928C21.6792 41.3734 22.2285 41.5335 22.7385 41.5335C23.2877 41.5335 23.8369 41.3734 24.347 41.0529L40.4702 31.1984C41.4117 30.5976 42.0001 29.5962 42.0001 28.4343C42.0001 27.3126 41.4118 26.2713 40.4702 25.6702L40.47 25.6702ZM38.8618 28.4344L22.7779 38.2888V18.5799L38.8618 28.4344Z" fill="#F8F8F8"/>
</g>
<defs>
<filter id="filter0_i_39_100" x="0" y="0" width="56" height="60" filterUnits="userSpaceOnUse" color-interpolation-filters="sRGB">
<feFlood flood-opacity="0" result="BackgroundImageFix"/>
<feBlend mode="normal" in="SourceGraphic" in2="BackgroundImageFix" result="shape"/>
<feColorMatrix in="SourceAlpha" type="matrix" values="0 0 0 0 0 0 0 0 0 0 0 0 0 0 0 0 0 0 127 0" result="hardAlpha"/>
<feOffset dy="4"/>
<feGaussianBlur stdDeviation="2"/>
<feComposite in2="hardAlpha" operator="arithmetic" k2="-1" k3="1"/>
<feColorMatrix type="matrix" values="0 0 0 0 0 0 0 0 0 0 0 0 0 0 0 0 0 0 0.25 0"/>
<feBlend mode="normal" in2="shape" result="effect1_innerShadow_39_100"/>
</filter>
</defs>
</svg>
