<svg width="90" height="90" viewBox="0 0 90 90" fill="none" xmlns="http://www.w3.org/2000/svg">
<g filter="url(#filter0_d_298_18)">
<path d="M21.5785 64.7689C27.3008 70.4912 35.0632 73.7066 43.1568 73.707L43.1565 69.3469C36.2194 69.3472 29.566 66.5911 24.6608 61.6859C19.7556 56.7807 16.9998 50.1276 16.9999 43.1903C16.9996 36.2532 19.7555 29.5999 24.6609 24.6946C29.5661 19.7894 36.2192 17.0336 43.1566 17.0335C50.0937 17.0333 56.7471 19.7893 61.6522 24.6945C66.5574 29.5997 69.3132 36.2528 69.3132 43.1902C69.3134 50.1272 66.5574 56.7807 61.6522 61.6859L58.3771 58.4104L57.465 68.8999L67.9546 67.9878L64.7352 64.7688C68.5231 60.9809 71.2469 56.2634 72.6334 51.0889C74.0199 45.9145 74.0199 40.4668 72.6335 35.2924C71.247 30.118 68.5232 25.4001 64.7352 21.6122C59.013 15.8899 51.2505 12.6745 43.1569 12.6742C35.0631 12.6745 27.3009 15.89 21.5786 21.6123C15.8563 27.3346 12.6408 35.097 12.6405 43.1906C12.6408 51.2844 15.8563 59.0467 21.5785 64.7689Z" fill="#C233FF"/>
<path d="M44.0776 41.6536L52.6223 50.34C53.1686 50.8954 53.377 51.6997 53.1692 52.4501C52.9614 53.2005 52.369 53.7833 51.6152 53.9787C50.8615 54.1741 50.0607 53.9525 49.5144 53.3972L40.3429 44.0736C39.9341 43.6628 39.7061 43.1063 39.7081 42.5269L39.8222 28.6555C39.8246 28.0744 40.059 27.5183 40.4735 27.1105C40.888 26.7028 41.4479 26.4776 42.029 26.4847C42.6101 26.4871 43.1662 26.7215 43.574 27.136C43.9817 27.5506 44.2069 28.1104 44.1998 28.6915L44.0776 41.6536Z" fill="#C233FF"/>
</g>
<defs>
<filter id="filter0_d_298_18" x="4.64062" y="12.6741" width="69.0322" height="69.033" filterUnits="userSpaceOnUse" color-interpolation-filters="sRGB">
<feFlood flood-opacity="0" result="BackgroundImageFix"/>
<feColorMatrix in="SourceAlpha" type="matrix" values="0 0 0 0 0 0 0 0 0 0 0 0 0 0 0 0 0 0 127 0" result="hardAlpha"/>
<feOffset dx="-4" dy="4"/>
<feGaussianBlur stdDeviation="2"/>
<feComposite in2="hardAlpha" operator="out"/>
<feColorMatrix type="matrix" values="0 0 0 0 0 0 0 0 0 0 0 0 0 0 0 0 0 0 0.25 0"/>
<feBlend mode="normal" in2="BackgroundImageFix" result="effect1_dropShadow_298_18"/>
<feBlend mode="normal" in="SourceGraphic" in2="effect1_dropShadow_298_18" result="shape"/>
</filter>
</defs>
</svg>
