<svg width="23" height="25" viewBox="0 0 23 25" fill="none" xmlns="http://www.w3.org/2000/svg">
<path fill-rule="evenodd" clip-rule="evenodd" d="M11.5492 2.03537L11.5127 2.06503L2.0104 7.34227V21.6597C2.0104 21.8142 2.0365 21.8979 2.05218 21.935C2.06702 21.9701 2.08008 21.9819 2.08434 21.9856C2.09143 21.9918 2.10198 21.9983 2.11597 22.0032C2.12082 22.0049 2.12462 22.0059 2.12708 22.0064H7.85786C7.90035 22.0064 7.93485 22.0043 7.96229 22.0012V13.7013H15.0427V21.5825L15.0402 21.6175C15.0269 21.8063 15.038 21.9299 15.0524 22.0064H20.9945V7.5185C20.9945 7.43646 20.9884 7.37635 20.9814 7.33444L11.6388 2.08488L11.6043 2.06145C11.5872 2.04988 11.5748 2.04367 11.5674 2.04042C11.56 2.03718 11.5556 2.03605 11.554 2.03568C11.5517 2.03517 11.5509 2.03517 11.5492 2.03537ZM20.9964 22.2455C20.9963 22.2456 20.9965 22.2449 20.9969 22.2435L20.9964 22.2455ZM12.6867 0.379575C11.7687 -0.217009 10.8636 0.0740683 10.4095 0.389997L0.948921 5.64405L0.931593 5.65461C0.111443 6.15467 -0.0427963 6.97252 0.0104042 7.47353V21.6597C0.0104042 22.4487 0.291793 23.0733 0.764788 23.4885C1.20322 23.8735 1.72476 24.0064 2.11483 24.0064H7.85787C8.50357 24.0064 9.07318 23.8084 9.47285 23.3797C9.85516 22.9696 9.96229 22.4757 9.96229 22.1086V15.7013H13.0427V21.5145C12.9948 22.2867 13.1556 22.9542 13.5828 23.4302C13.9931 23.8874 14.5329 24.0351 14.9677 24.0064H20.9121C21.226 24.0561 21.547 24.0458 21.8544 23.9417C22.2077 23.8221 22.4745 23.6016 22.657 23.3455C22.9725 22.903 23.0169 22.3939 22.9945 22.0683V7.5185C22.9945 6.65479 22.6457 5.86314 21.9646 5.59279L12.6867 0.379575Z" fill="#C233FF"/>
</svg>
