<svg width="18" height="19" viewBox="0 0 18 19" fill="none" xmlns="http://www.w3.org/2000/svg">
<path d="M16.6081 14.4002C17.5203 12.9655 18.0033 11.3002 18.0002 9.6002C18.0002 7.21319 17.052 4.92397 15.3642 3.23609C13.6763 1.5483 11.3871 0.600098 9.0001 0.600098C6.61313 0.600098 4.32387 1.5483 2.63599 3.23609C0.948205 4.92397 0 7.21323 0 9.6002C0 11.9872 0.948205 14.2764 2.63599 15.9643C4.32387 17.6521 6.61313 18.6003 9.0001 18.6003C10.7001 18.6034 12.3655 18.1204 13.8001 17.2082L17.178 18.5582C17.2487 18.5862 17.3241 18.6004 17.4001 18.6003C17.5991 18.6004 17.7853 18.502 17.8971 18.3373C18.0089 18.1727 18.0317 17.9632 17.958 17.7782L16.6081 14.4002ZM13.9561 15.9781H13.9562C13.7716 15.9046 13.5627 15.9271 13.3981 16.0381C12.1046 16.9285 10.5705 17.4035 9.00031 17.4002C6.93164 17.4002 4.94773 16.5784 3.48476 15.1156C2.022 13.6529 1.2002 11.6689 1.2002 9.6001C1.2002 7.5313 2.022 5.54753 3.48476 4.08455C4.94753 2.62179 6.93151 1.79999 9.00031 1.79999C11.0691 1.79999 13.0529 2.62179 14.5158 4.08455C15.9786 5.54732 16.8004 7.5313 16.8004 9.6001C16.8038 11.1704 16.3287 12.7046 15.4383 13.9979C15.3273 14.1625 15.3048 14.3715 15.3783 14.556L16.3263 16.926L13.9561 15.9781Z" fill="#FA169F"/>
</svg>
