<svg width="21" height="22" viewBox="0 0 21 22" fill="none" xmlns="http://www.w3.org/2000/svg">
<path fill-rule="evenodd" clip-rule="evenodd" d="M3.5 12.7838C4.74191 12.7838 5.74867 11.7771 5.74867 10.5352C5.74867 9.29325 4.74191 8.28648 3.5 8.28648C2.25809 8.28648 1.25133 9.29325 1.25133 10.5352C1.25133 11.7771 2.25809 12.7838 3.5 12.7838ZM3.5 14.0352C5.433 14.0352 7 12.4682 7 10.5352C7 8.60216 5.433 7.03516 3.5 7.03516C1.567 7.03516 0 8.60216 0 10.5352C0 12.4682 1.567 14.0352 3.5 14.0352Z" fill="#C233FF"/>
<path fill-rule="evenodd" clip-rule="evenodd" d="M16.5 19.7838C17.7419 19.7838 18.7487 18.7771 18.7487 17.5352C18.7487 16.2932 17.7419 15.2865 16.5 15.2865C15.2581 15.2865 14.2513 16.2932 14.2513 17.5352C14.2513 18.7771 15.2581 19.7838 16.5 19.7838ZM16.5 21.0352C18.433 21.0352 20 19.4682 20 17.5352C20 15.6022 18.433 14.0352 16.5 14.0352C14.567 14.0352 13 15.6022 13 17.5352C13 19.4682 14.567 21.0352 16.5 21.0352Z" fill="#C233FF"/>
<path fill-rule="evenodd" clip-rule="evenodd" d="M17.5 5.78383C18.7419 5.78383 19.7487 4.77706 19.7487 3.53516C19.7487 2.29325 18.7419 1.28648 17.5 1.28648C16.2581 1.28648 15.2513 2.29325 15.2513 3.53516C15.2513 4.77706 16.2581 5.78383 17.5 5.78383ZM17.5 7.03516C19.433 7.03516 21 5.46815 21 3.53516C21 1.60216 19.433 0.0351562 17.5 0.0351562C15.567 0.0351562 14 1.60216 14 3.53516C14 5.46815 15.567 7.03516 17.5 7.03516Z" fill="#C233FF"/>
<path fill-rule="evenodd" clip-rule="evenodd" d="M13.4428 17.0352L5 13.1196L5.55718 12.0352L14 15.9507L13.4428 17.0352Z" fill="#C233FF"/>
<path fill-rule="evenodd" clip-rule="evenodd" d="M15 5.40724L6.56969 10.0352L6 8.66308L14.4303 4.03516L15 5.40724Z" fill="#C233FF"/>
</svg>
