<svg width="56" height="52" viewBox="0 0 56 52" fill="none" xmlns="http://www.w3.org/2000/svg">
<path d="M55.9031 15.2973C55.5519 11.093 54.527 8.59896 51.9883 5.76477C48.5616 1.93896 44.8804 0 41.0474 0C35.0879 0 30.4613 4.67356 27.9978 7.86475C25.535 4.67356 20.9083 0 14.9482 0C11.1165 0 7.43519 1.94025 4.00918 5.76477C1.4692 8.59896 0.444217 11.0936 0.097242 15.2533C-1.71371 32.9157 22.3173 48.7835 26.5341 51.4249C26.6735 51.5577 26.8319 51.6717 27.0051 51.7632C27.3059 51.9229 27.6309 52 27.9559 52C28.1345 52 28.3124 51.9775 28.4856 51.9298C28.6938 51.8785 28.8961 51.797 29.0877 51.683C29.1832 51.6266 29.2734 51.5615 29.357 51.4901C33.2624 49.0587 57.7253 33.0703 55.9031 15.2973Z" fill="#E3A9FB"/>
</svg>
