<svg width="26" height="23" viewBox="0 0 26 23" fill="none" xmlns="http://www.w3.org/2000/svg">
<path d="M13.0118 22.4425L12.6861 22.2795C7.7121 19.6592 4.12957 16.7132 2.02742 13.5453C0.769092 11.6504 -0.548319 8.71916 0.236157 5.52164C1.0357 2.2795 3.86293 0 7.10506 0C9.31082 0 11.3684 1.03629 12.997 2.94599C14.6253 1.03638 16.6979 0 18.889 0C22.1311 0 24.9583 2.26484 25.7579 5.52164C26.5575 8.71916 25.225 11.6503 23.9667 13.5453C21.8645 16.7133 18.282 19.6592 13.3079 22.2795L13.0118 22.4425ZM7.10543 1.3769C4.49984 1.3769 2.22033 3.21241 1.56905 5.8475C1.11025 7.69776 0.592118 14.2115 12.9976 20.8877C25.4028 14.2113 24.8848 7.6974 24.4261 5.8475C23.7748 3.21241 21.4949 1.3769 18.8897 1.3769C16.8912 1.3769 14.9816 2.47227 13.5454 4.45599L12.983 5.22568L12.4206 4.45599C11.0136 2.47218 9.11873 1.3769 7.10543 1.3769Z" fill="#C233FF"/>
<ellipse cx="7.10938" cy="7.71875" rx="6.29688" ry="6.90625" fill="#C233FF"/>
<ellipse cx="9.14062" cy="10.9686" rx="6.29688" ry="6.90625" fill="#C233FF"/>
<ellipse cx="16.4531" cy="11.3749" rx="6.29688" ry="6.90625" fill="#C233FF"/>
<ellipse cx="12.7969" cy="14.2186" rx="6.29688" ry="6.90625" fill="#C233FF"/>
<ellipse cx="18.8906" cy="7.71863" rx="6.29688" ry="6.90625" fill="#C233FF"/>
<ellipse cx="7.10938" cy="7.71875" rx="6.29688" ry="6.90625" fill="#C233FF"/>
<ellipse cx="9.14062" cy="10.9686" rx="6.29688" ry="6.90625" fill="#C233FF"/>
<ellipse cx="16.4531" cy="11.3749" rx="6.29688" ry="6.90625" fill="#C233FF"/>
<ellipse cx="12.7969" cy="14.2186" rx="6.29688" ry="6.90625" fill="#C233FF"/>
<ellipse cx="18.8906" cy="7.71863" rx="6.29688" ry="6.90625" fill="#C233FF"/>
</svg>
