<svg width="35" height="32" viewBox="0 0 35 32" fill="none" xmlns="http://www.w3.org/2000/svg">
<path d="M34.4799 9.41372C34.2633 6.82646 33.6311 5.29167 32.0653 3.54755C29.9519 1.19321 27.6813 0 25.3172 0C21.6416 0 18.7879 2.87604 17.2685 4.83985C15.7495 2.87604 12.8958 0 9.21977 0C6.85642 0 4.58588 1.194 2.47278 3.54755C0.906173 5.29167 0.273984 6.82685 0.059977 9.38667C-1.05698 20.2558 13.7649 30.0206 16.3657 31.6461C16.4517 31.7278 16.5494 31.798 16.6562 31.8543C16.8417 31.9526 17.0422 32 17.2427 32C17.3528 32 17.4626 31.9861 17.5694 31.9568C17.6978 31.9252 17.8225 31.8751 17.9407 31.8049C17.9996 31.7702 18.0552 31.7301 18.1068 31.6862C20.5156 30.19 35.6039 20.3512 34.48 9.41394L34.4799 9.41372ZM17.2685 28.9906C14.2419 27.0226 1.77475 18.3593 2.66918 9.65749C2.83454 7.68282 3.21722 6.73832 4.37693 5.4476C5.97566 3.66687 7.60521 2.76363 9.2193 2.76363C12.2459 2.76363 15.0063 6.0074 16.1609 7.92423C16.4013 8.32325 16.8191 8.56535 17.2676 8.56535C17.7161 8.56535 18.1339 8.32325 18.3742 7.92384C18.6925 7.39529 21.5897 2.76403 25.3158 2.76403C26.9307 2.76403 28.5602 3.66731 30.1593 5.44801C31.3179 6.73833 31.7006 7.68254 31.8693 9.68494C32.7605 18.3611 20.2951 27.0235 17.2681 28.9914L17.2685 28.9906Z" fill="#FA169F"/>
</svg>
