<svg width="64" height="60" viewBox="0 0 64 60" fill="none" xmlns="http://www.w3.org/2000/svg">
<g filter="url(#filter0_d_369_5)">
<path d="M59.9031 15.2973C59.5519 11.093 58.527 8.59896 55.9883 5.76477C52.5616 1.93896 48.8804 0 45.0474 0C39.0879 0 34.4613 4.67356 31.9978 7.86475C29.535 4.67356 24.9083 0 18.9482 0C15.1165 0 11.4352 1.94025 8.00918 5.76477C5.4692 8.59896 4.44422 11.0936 4.09724 15.2533C2.28629 32.9157 26.3173 48.7835 30.5341 51.4249C30.6735 51.5577 30.8319 51.6717 31.0051 51.7632C31.3059 51.9229 31.6309 52 31.9559 52C32.1345 52 32.3124 51.9775 32.4856 51.9298C32.6938 51.8785 32.8961 51.797 33.0877 51.683C33.1832 51.6266 33.2734 51.5615 33.357 51.4901C37.2624 49.0587 61.7253 33.0703 59.9031 15.2973Z" fill="#E3A9FB"/>
</g>
<defs>
<filter id="filter0_d_369_5" x="0" y="0" width="64" height="60" filterUnits="userSpaceOnUse" color-interpolation-filters="sRGB">
<feFlood flood-opacity="0" result="BackgroundImageFix"/>
<feColorMatrix in="SourceAlpha" type="matrix" values="0 0 0 0 0 0 0 0 0 0 0 0 0 0 0 0 0 0 127 0" result="hardAlpha"/>
<feOffset dy="4"/>
<feGaussianBlur stdDeviation="2"/>
<feComposite in2="hardAlpha" operator="out"/>
<feColorMatrix type="matrix" values="0 0 0 0 0 0 0 0 0 0 0 0 0 0 0 0 0 0 0.25 0"/>
<feBlend mode="normal" in2="BackgroundImageFix" result="effect1_dropShadow_369_5"/>
<feBlend mode="normal" in="SourceGraphic" in2="effect1_dropShadow_369_5" result="shape"/>
</filter>
</defs>
</svg>
