<svg width="22" height="20" viewBox="0 0 22 20" fill="none" xmlns="http://www.w3.org/2000/svg">
<path d="M21.9619 5.88357C21.824 4.26653 21.4213 3.30729 20.424 2.21722C19.0778 0.745755 17.6316 0 16.1258 0C13.7846 0 11.9669 1.79752 10.9991 3.0249C10.0316 1.79752 8.21397 0 5.87252 0C4.36718 0 2.92097 0.746248 1.57503 2.21722C0.577185 3.30729 0.174514 4.26678 0.0382022 5.86667C-0.673243 12.6599 8.76751 18.7629 10.4241 19.7788C10.4789 19.8299 10.5411 19.8737 10.6092 19.9089C10.7273 19.9704 10.855 20 10.9827 20C11.0528 20 11.1227 19.9913 11.1908 19.973C11.2726 19.9533 11.352 19.9219 11.4273 19.8781C11.4648 19.8564 11.5002 19.8313 11.5331 19.8039C13.0674 18.8687 22.6778 12.7194 21.9619 5.88357ZM10.9991 18.1191C9.07133 16.8891 1.13042 11.4746 1.70013 6.03593C1.80546 4.80176 2.04921 4.21145 2.78788 3.40475C3.80619 2.29179 4.84412 1.72727 5.87222 1.72727C7.80003 1.72727 9.55824 3.75462 10.2937 4.95264C10.4468 5.20203 10.7129 5.35335 10.9985 5.35335C11.2842 5.35335 11.5504 5.20203 11.7034 4.9524C11.9062 4.62205 13.7515 1.72752 16.1249 1.72752C17.1534 1.72752 18.1914 2.29207 19.2099 3.40501C19.9479 4.21146 20.1917 4.80159 20.2991 6.05309C20.8668 11.4757 12.9272 16.8892 10.9991 18.1191Z" fill="#FA169F"/>
</svg>
