<svg width="25" height="19" viewBox="0 0 25 19" fill="none" xmlns="http://www.w3.org/2000/svg">
<path d="M25 0.499662C25 0.471535 25 0.44112 24.9946 0.412991C24.9946 0.410702 24.992 0.408249 24.992 0.40596C24.9866 0.380122 24.9786 0.354446 24.968 0.330897C24.9626 0.321576 24.9574 0.312091 24.952 0.300481C24.944 0.286417 24.9386 0.272353 24.9306 0.260579C24.928 0.258289 24.9252 0.255836 24.9252 0.253547C24.9172 0.241773 24.9092 0.232451 24.9011 0.22313C24.8905 0.209066 24.8797 0.197292 24.8665 0.183229C24.8559 0.173907 24.8479 0.164423 24.8371 0.155101C24.8237 0.143327 24.8105 0.134005 24.7971 0.122231C24.7865 0.115199 24.7731 0.105878 24.7624 0.0988463C24.7464 0.0895248 24.7304 0.0824933 24.7144 0.0730082C24.701 0.0682658 24.6904 0.061234 24.677 0.0566553C24.6556 0.0496234 24.6344 0.0425914 24.613 0.0378491C24.6049 0.0355596 24.5995 0.0331068 24.5915 0.0308172H24.5835C24.5515 0.0237853 24.5221 0.0214958 24.4901 0.019043H24.4847C24.4501 0.019043 24.418 0.0190429 24.3832 0.0260748C24.3778 0.0260748 24.3726 0.0283643 24.3646 0.0308172C24.3406 0.0355596 24.3192 0.0378492 24.2952 0.0448811L1.34235 6.8436C1.11317 6.91163 0.963678 7.10623 0.979687 7.31947C0.995698 7.53288 1.1746 7.70867 1.41197 7.74841L12.1492 9.54416L11.6555 14.7512C11.6369 14.9411 11.7515 15.1216 11.9437 15.2084C12.0211 15.2436 12.1038 15.26 12.1866 15.26C12.3121 15.26 12.4348 15.2225 12.5336 15.1475L15.1786 13.1524L19.2166 18.3381C19.3181 18.4669 19.4836 18.542 19.6569 18.542C19.6889 18.542 19.7209 18.5397 19.753 18.535C19.9611 18.5021 20.1266 18.3638 20.1746 18.1834L24.9787 0.600489C24.9787 0.595747 24.9787 0.593457 24.9813 0.588715C24.9867 0.567619 24.9893 0.546524 24.9919 0.523139C24.9975 0.513981 25.0001 0.506949 25.0001 0.499917L25 0.499662ZM21.9628 1.72335L12.5734 8.66022L3.61104 7.15981L21.9628 1.72335ZM12.8298 13.6889L13.1314 10.5146L14.578 12.3714L12.8298 13.6889ZM19.4249 16.9336L13.436 9.24648L23.5699 1.76329L19.4249 16.9336Z" fill="#FA169F"/>
</svg>
