<svg width="48" height="46" viewBox="0 0 48 46" fill="none" xmlns="http://www.w3.org/2000/svg">
<path fill-rule="evenodd" clip-rule="evenodd" d="M24.1023 3.83631L24.0262 3.89315L4.19387 14.0072V41.4471C4.19387 41.7433 4.24833 41.9038 4.28106 41.9748C4.31202 42.0421 4.3393 42.0647 4.34818 42.0718C4.36298 42.0838 4.38499 42.0961 4.41419 42.1055C4.42431 42.1087 4.43224 42.1106 4.43738 42.1117H16.3981C16.4868 42.1117 16.5587 42.1075 16.616 42.1017V26.1946H31.3934V41.2993L31.3883 41.3664C31.3606 41.7281 31.3836 41.9651 31.4139 42.1117H43.8156V14.345C43.8156 14.1877 43.8028 14.0725 43.7882 13.9922L24.2894 3.9312L24.2172 3.88629C24.1815 3.86412 24.1557 3.85222 24.1402 3.84599C24.1247 3.83978 24.1156 3.83761 24.1122 3.8369C24.1075 3.83592 24.1058 3.83592 24.1023 3.83631ZM43.8194 42.57C43.8193 42.5701 43.8196 42.5688 43.8205 42.566ZM26.4764 0.662901C24.5604 -0.480479 22.6713 0.077384 21.7236 0.682876L1.97845 10.7525L1.94229 10.7727C0.230555 11.7311 -0.0913582 13.2986 0.0196765 14.2588V41.4471C0.0196765 42.9593 0.606961 44.1563 1.59415 44.9522C2.50919 45.69 3.5977 45.9448 4.41182 45.9448H16.3981C17.7457 45.9448 18.9346 45.5653 19.7687 44.7436C20.5666 43.9577 20.7902 43.0111 20.7902 42.3075V30.0277H27.2192V41.1689C27.1194 42.649 27.4549 43.9281 28.3465 44.8404C29.2028 45.7167 30.3294 45.9998 31.2369 45.9448H43.6436C44.2988 46.0401 44.9686 46.0202 45.6101 45.8208C46.3476 45.5916 46.9043 45.169 47.2853 44.6782C47.9437 43.83 48.0364 42.8544 47.9898 42.2304V14.345C47.9898 12.6896 47.2617 11.1724 45.8403 10.6543L26.4764 0.662901Z" fill="#C233FF"/>
<rect x="2" y="15" width="16" height="29" fill="#C233FF"/>
<rect x="12" y="28" width="13" height="26" transform="rotate(-90 12 28)" fill="#C233FF"/>
<rect x="30" y="15" width="16" height="30" fill="#C233FF"/>
<path d="M24.3387 1L47 15H2L24.3387 1Z" fill="#C233FF"/>
</svg>
