<svg width="48" height="48" viewBox="0 0 48 48" fill="none" xmlns="http://www.w3.org/2000/svg">
<path fill-rule="evenodd" clip-rule="evenodd" d="M26.0717 27.3356C27.0617 26.4025 28.667 26.4025 29.6571 27.3356L47.2572 43.9214C48.2473 44.8544 48.2473 46.3671 47.2572 47.3001C46.2671 48.2332 44.6619 48.2332 43.6718 47.3001L26.0717 30.7143C25.0816 29.7813 25.0816 28.2686 26.0717 27.3356Z" fill="#C233FF"/>
<path fill-rule="evenodd" clip-rule="evenodd" d="M17.6001 28.3933C24.5201 28.3933 30.1298 23.1069 30.1298 16.5858C30.1298 10.0647 24.5201 4.77829 17.6001 4.77829C10.6802 4.77829 5.07052 10.0647 5.07052 16.5858C5.07052 23.1069 10.6802 28.3933 17.6001 28.3933ZM17.6001 33.1716C27.3204 33.1716 35.2003 25.7459 35.2003 16.5858C35.2003 7.42572 27.3204 0 17.6001 0C7.87985 0 0 7.42572 0 16.5858C0 25.7459 7.87985 33.1716 17.6001 33.1716Z" fill="#C233FF"/>
<path d="M29 16C29 22.3513 23.8513 27.5 17.5 27.5C11.1487 27.5 6 22.3513 6 16C6 9.64873 11.1487 5.5 17.5 5.5C23.8513 5.5 29 9.64873 29 16Z" fill="#C233FF"/>
</svg>
