<svg width="40" height="41" viewBox="0 0 40 41" fill="none" xmlns="http://www.w3.org/2000/svg">
<path d="M2.34148 28.1443L28.8716 1.21736C29.6173 0.460521 30.6289 0.0351562 31.6834 0.0351562C32.7383 0.0351562 33.7499 0.460502 34.4956 1.21736L38.2451 5.02296C38.9912 5.78017 39.4099 6.80688 39.4099 7.87722C39.4099 8.94793 38.9912 9.97463 38.2451 10.7315L11.715 37.6585L0 40.0352L2.34148 28.1443ZM36.3701 8.82895C36.6186 8.5763 36.7581 8.2343 36.7581 7.87728C36.7581 7.52064 36.6186 7.17827 36.3701 6.92599L32.6206 3.12038C32.372 2.8681 32.0347 2.72619 31.6829 2.72619C31.3315 2.72619 30.9942 2.8681 30.7456 3.12038L4.78176 29.4727L3.37363 36.6101L10.4039 35.1831L36.3701 8.82895Z" fill="#C233FF"/>
<path d="M34.8641 13.0107L32.9892 14.9137L25.4902 7.30217L27.3652 5.39917L34.8641 13.0107Z" fill="#C233FF"/>
<path d="M4.03012 38.7986L1.2168 35.9436L3.09137 34.041L5.90431 36.896L4.03012 38.7986Z" fill="#C233FF"/>
</svg>
