<svg width="32" height="38" viewBox="0 0 32 38" fill="none" xmlns="http://www.w3.org/2000/svg">
<path fill-rule="evenodd" clip-rule="evenodd" d="M10.8836 5.06664C10.937 4.45126 11.0742 3.88117 11.3213 3.45084C11.5975 2.96967 12.0782 2.53332 13.1429 2.53332H18.8571C19.9218 2.53332 20.4025 2.96967 20.6787 3.45084C20.9258 3.88117 21.063 4.45126 21.1164 5.06664H10.8836ZM13.1429 0H18.8571H19.4286C19.584 0 19.7322 0.0343891 19.8673 0.0966769C21.1235 0.349796 22.0283 1.08273 22.6071 2.0908C23.1493 3.0352 23.352 4.12729 23.4095 5.06664H27.4286H30.8571C31.4883 5.06664 32 5.63374 32 6.3333C32 7.03286 31.4883 7.59996 30.8571 7.59996H28.5714V32.9332C28.5714 33.801 28.3395 34.9122 27.6429 35.8988C26.9335 36.9033 25.8141 37.6767 24.211 37.9783C24.1726 37.9862 24.1335 37.992 24.0938 37.9956C24.0551 37.9992 24.0167 38.0005 23.9785 37.9998H8H7.90541L7.81212 37.9826C6.19663 37.6842 5.06987 36.9082 4.35714 35.8988C3.66051 34.9122 3.42857 33.801 3.42857 32.9332V7.59996H1.14286C0.511675 7.59996 0 7.03286 0 6.3333C0 5.63374 0.511675 5.06664 1.14286 5.06664H4.57143H8.59045C8.64797 4.12729 8.85066 3.0352 9.39288 2.0908C10.1166 0.830307 11.3501 0 13.1429 0ZM9.71429 7.59996H26.2857V32.9332C26.2857 33.332 26.1748 33.8674 25.8429 34.3375C25.5354 34.7729 24.9706 35.2494 23.9011 35.4665H8.09894C7.0294 35.2494 6.46458 34.7729 6.15715 34.3375C5.8252 33.8674 5.71429 33.332 5.71429 32.9332V7.59996H9.71429ZM17.1429 12.0333C17.1429 11.3337 16.6312 10.7666 16 10.7666C15.3688 10.7666 14.8571 11.3337 14.8571 12.0333V31.6665C14.8571 32.3661 15.3688 32.9332 16 32.9332C16.6312 32.9332 17.1429 32.3661 17.1429 31.6665V12.0333ZM9.71429 12.0333C10.3455 12.0333 10.8571 12.6004 10.8571 13.2999V30.3998C10.8571 31.0994 10.3455 31.6665 9.71429 31.6665C9.0831 31.6665 8.57143 31.0994 8.57143 30.3998V13.2999C8.57143 12.6004 9.0831 12.0333 9.71429 12.0333ZM23.4286 13.2999C23.4286 12.6004 22.9169 12.0333 22.2857 12.0333C21.6545 12.0333 21.1429 12.6004 21.1429 13.2999V30.3998C21.1429 31.0994 21.6545 31.6665 22.2857 31.6665C22.9169 31.6665 23.4286 31.0994 23.4286 30.3998V13.2999Z" fill="#ABD2EF"/>
</svg>
