<svg width="23" height="24" viewBox="0 0 23 24" fill="none" xmlns="http://www.w3.org/2000/svg">
<path d="M21.6911 17.7817C23.1828 15.198 23.252 12.1094 22.4254 9.19587L20.5 9.5C21.2087 11.9972 21.5364 14.7396 20.2577 16.9543C18.979 19.169 16.8466 20.77 14.3296 21.405C11.8127 22.04 9.11722 21.6569 6.83637 20.34C4.55561 19.0232 2.87616 16.8805 2.16753 14.3832C1.45884 11.886 1.77918 9.23869 3.05785 7.02396C4.33652 4.80924 6.46894 3.20827 8.98597 2.57331C11.5029 1.93828 14.1984 2.32142 16.4792 3.63822L15.6253 5.11696L20 5L18.1219 0.792684L17.2828 2.24623C15.5216 1.22936 13.5317 0.680624 11.5127 0.655125C9.49366 0.629626 7.51712 1.12824 5.78134 2.10095C4.04556 3.07365 2.61204 4.48599 1.62461 6.19627C0.132948 8.7799 -0.240793 11.8685 0.585809 14.7821C1.41269 17.6956 3.37221 20.1956 6.03289 21.7317C8.69357 23.2679 11.8384 23.7149 14.775 22.9742C17.7116 22.2333 20.1995 20.3653 21.6911 17.7817Z" fill="#C233FF"/>
</svg>
