<svg width="23" height="24" viewBox="0 0 23 24" fill="none" xmlns="http://www.w3.org/2000/svg">
<path fill-rule="evenodd" clip-rule="evenodd" d="M10.5065 13.6679C10.0321 13.2014 9.26289 13.2014 8.78847 13.6679L0.354995 21.9608C-0.119423 22.4273 -0.119423 23.1837 0.354995 23.6502C0.829412 24.1167 1.5986 24.1167 2.07301 23.6502L10.5065 15.3573C10.9809 14.8907 10.9809 14.1344 10.5065 13.6679Z" fill="#D1D1D1"/>
<path fill-rule="evenodd" clip-rule="evenodd" d="M14.5655 14.1967C11.2497 14.1967 8.56171 11.5535 8.56171 8.29292C8.56171 5.03236 11.2497 2.38915 14.5655 2.38915C17.8814 2.38915 20.5694 5.03236 20.5694 8.29292C20.5694 11.5535 17.8814 14.1967 14.5655 14.1967ZM14.5655 16.5858C9.90786 16.5858 6.13207 12.873 6.13207 8.29292C6.13207 3.71287 9.90786 0 14.5655 0C19.2232 0 22.999 3.71287 22.999 8.29292C22.999 12.873 19.2232 16.5858 14.5655 16.5858Z" fill="#D1D1D1"/>
</svg>
