<svg width="21" height="23" viewBox="0 0 21 23" fill="none" xmlns="http://www.w3.org/2000/svg">
<path fill-rule="evenodd" clip-rule="evenodd" d="M11.3124 12.621C11.742 12.1914 12.4385 12.1914 12.8681 12.621L20.5044 20.2574C20.934 20.687 20.934 21.3834 20.5044 21.813C20.0748 22.2426 19.3784 22.2426 18.9488 21.813L11.3124 14.1766C10.8828 13.7471 10.8828 13.0506 11.3124 12.621Z" fill="#C233FF"/>
<path fill-rule="evenodd" clip-rule="evenodd" d="M7.63636 13.1079C10.6388 13.1079 13.0727 10.6739 13.0727 7.67152C13.0727 4.6691 10.6388 2.23516 7.63636 2.23516C4.63394 2.23516 2.2 4.6691 2.2 7.67152C2.2 10.6739 4.63394 13.1079 7.63636 13.1079ZM7.63636 15.3079C11.8538 15.3079 15.2727 11.889 15.2727 7.67152C15.2727 3.45407 11.8538 0.0351562 7.63636 0.0351562C3.41892 0.0351562 0 3.45407 0 7.67152C0 11.889 3.41892 15.3079 7.63636 15.3079Z" fill="#C233FF"/>
</svg>
