<svg width="23" height="28" viewBox="0 0 23 28" fill="none" xmlns="http://www.w3.org/2000/svg">
<path fill-rule="evenodd" clip-rule="evenodd" d="M21.2182 10.5975C19.9706 12.0118 18.1858 12.2723 16.842 12.248L4.96097 21.4684C4.58279 21.7619 4.04964 21.7462 3.68937 21.4309L1.4255 19.4501C1.02864 19.1028 0.969638 18.507 1.29068 18.0887L10.6491 5.89373C10.7276 4.57445 11.27 3.21528 12.3545 1.92416C12.385 1.88784 12.4181 1.85374 12.4534 1.82211C13.9771 0.458868 15.6511 -0.0953878 17.243 0.0132806C18.8178 0.120778 20.2219 0.870723 21.2411 1.95232C23.2773 4.11319 23.8849 7.75123 21.2182 10.5975ZM11.1355 8.54505C11.7646 9.94978 12.9332 11.0639 14.3008 11.6884L4.38601 19.383L3.4482 18.5624L8.36337 12.1574L8.97464 12.8504L10.4745 11.5273L9.6041 10.5406L11.1355 8.54505ZM20.2916 8.55898C21.4969 6.7384 21.0517 4.66766 19.7855 3.32393C19.0714 2.56612 18.1231 2.07801 17.1068 2.00864C16.2899 1.95287 15.3682 2.16334 14.4226 2.81155C14.7514 3.29534 15.2723 3.96756 16.0123 4.76784C17.0415 5.88096 18.4598 7.20408 20.2916 8.55898ZM13.0959 4.39578C13.4764 4.90861 13.9604 5.4947 14.5438 6.12562C15.5958 7.26339 17.0048 8.58387 18.7911 9.9343C18.1394 10.215 17.3601 10.282 16.5738 10.2367C14.5386 10.1193 12.6466 8.34959 12.6391 6.24268C12.6372 5.67733 12.768 5.05394 13.0959 4.39578Z" fill="#C233FF"/>
<path fill-rule="evenodd" clip-rule="evenodd" d="M3.69811 19.1836C4.05477 19.6052 4.00207 20.2362 3.58039 20.5929C2.97746 21.1028 2.67889 21.9775 2.77923 22.9747C2.87948 23.9711 3.36708 24.9178 4.09971 25.4672C4.78499 25.9812 5.78952 26.2289 7.17466 25.6676C8.60948 25.0862 10.455 23.626 12.5938 20.6594C12.9168 20.2115 13.5418 20.1101 13.9898 20.4331C14.4378 20.7561 14.5391 21.3811 14.2161 21.8291C11.9683 24.9467 9.8517 26.7408 7.92579 27.5212C5.9502 28.3218 4.19542 28.039 2.89974 27.0673C1.6514 26.131 0.936377 24.637 0.789279 23.1749C0.642268 21.7138 1.05162 20.1123 2.2888 19.0659C2.71048 18.7092 3.34145 18.7619 3.69811 19.1836Z" fill="#C233FF"/>
</svg>
