<svg width="17" height="24" viewBox="0 0 17 24" fill="none" xmlns="http://www.w3.org/2000/svg">
<path fill-rule="evenodd" clip-rule="evenodd" d="M4 11.0767C4 13.3692 6.01651 15.2306 8.5 15.2306C10.9835 15.2306 13 13.3692 13 11.0767V4.15364C13 1.86119 10.9835 0 8.5 0C6.01651 0 4 1.86119 4 4.15364V11.0767ZM6 11.0767V4.15364C6 2.88027 7.12029 1.84637 8.5 1.84637C9.87971 1.84637 11 2.88032 11 4.15364V11.0767C11 12.3503 9.87971 13.3844 8.5 13.3844C7.12029 13.3844 6 12.3503 6 11.0767Z" fill="#C233FF"/>
<path fill-rule="evenodd" clip-rule="evenodd" d="M7.5 18.8691V22.1538H3.5C2.94799 22.1538 2.5 22.5673 2.5 23.0769C2.5 23.5864 2.94799 24 3.5 24H13.5C14.052 24 14.5 23.5864 14.5 23.0769C14.5 22.5673 14.052 22.1538 13.5 22.1538H9.5V18.8691C13.7205 18.4117 17 15.0949 17 11.0767C17 10.5672 16.552 10.1536 16 10.1536C15.448 10.1536 15 10.5672 15 11.0767C15 14.3882 12.0875 17.0767 8.5 17.0767C4.91251 17.0767 2 14.3882 2 11.0767C2 10.5672 1.55201 10.1536 1 10.1536C0.447989 10.1536 0 10.5672 0 11.0767C0 15.0948 3.27949 18.4112 7.5 18.8691Z" fill="#C233FF"/>
</svg>
