<svg width="64" height="61" viewBox="0 0 64 61" fill="none" xmlns="http://www.w3.org/2000/svg">
<rect y="0.0341797" width="64" height="60" rx="10" fill="#12130F" fill-opacity="0.9"/>
<path d="M32.0145 43.6558L31.6137 43.4551C25.4918 40.2301 21.0826 36.6043 18.4953 32.7053C16.9466 30.3731 15.3251 26.7655 16.2907 22.83C17.2747 18.8397 20.7544 16.0342 24.7447 16.0342C27.4595 16.0342 29.9918 17.3096 31.9964 19.66C34.0003 17.3097 36.5513 16.0342 39.248 16.0342C43.2383 16.0342 46.7179 18.8217 47.7021 22.83C48.6861 26.7655 47.0462 30.373 45.4974 32.7053C42.9101 36.6044 38.5009 40.2301 32.379 43.4551L32.0145 43.6558ZM24.7451 17.7288C21.5383 17.7288 18.7327 19.9879 17.9311 23.2311C17.3665 25.5083 16.7288 33.5253 31.997 41.7421C47.265 33.5251 46.6274 25.5079 46.0629 23.2311C45.2613 19.9879 42.4552 17.7288 39.2489 17.7288C36.7891 17.7288 34.4389 19.077 32.6713 21.5185L31.9791 22.4658L31.2869 21.5185C29.5552 19.0769 27.2231 17.7288 24.7451 17.7288Z" fill="#C233FF"/>
<ellipse cx="24.75" cy="25.5342" rx="7.75" ry="8.5" fill="#C233FF"/>
<ellipse cx="27.25" cy="29.5342" rx="7.75" ry="8.5" fill="#C233FF"/>
<ellipse cx="36.25" cy="30.0342" rx="7.75" ry="8.5" fill="#C233FF"/>
<ellipse cx="31.75" cy="33.5342" rx="7.75" ry="8.5" fill="#C233FF"/>
<ellipse cx="39.25" cy="25.5342" rx="7.75" ry="8.5" fill="#C233FF"/>
<ellipse cx="24.75" cy="25.5342" rx="7.75" ry="8.5" fill="#C233FF"/>
<ellipse cx="27.25" cy="29.5342" rx="7.75" ry="8.5" fill="#C233FF"/>
<ellipse cx="36.25" cy="30.0342" rx="7.75" ry="8.5" fill="#C233FF"/>
<ellipse cx="31.75" cy="33.5342" rx="7.75" ry="8.5" fill="#C233FF"/>
<ellipse cx="39.25" cy="25.5342" rx="7.75" ry="8.5" fill="#C233FF"/>
</svg>
