<svg width="16" height="18" viewBox="0 0 16 18" fill="none" xmlns="http://www.w3.org/2000/svg">
<path d="M15.2001 16.8C15.2001 17.4593 14.6652 18.0001 14.0028 18.0001H1.99709C1.33749 18.0001 0.799805 17.4613 0.799805 16.8C0.799805 12.8237 4.0233 9.6 7.9998 9.6C11.9763 9.6 15.1998 12.8238 15.1998 16.8H15.2001ZM8.00009 11.2001C5.04166 11.2001 2.61923 13.4939 2.41416 16.4002H13.5863C13.3812 13.4939 10.9588 11.2001 8.00038 11.2001H8.00009ZM8.00009 8.8C5.57009 8.8 3.59995 6.83014 3.59995 4.40014C3.59995 1.96993 5.57009 0 8.00009 0C10.4301 0 12.4002 1.96986 12.4002 4.40014C12.4002 6.83014 10.4301 8.8 8.00009 8.8ZM8.00009 7.20014C9.54638 7.20014 10.8 5.9465 10.8 4.40021C10.8 2.85364 9.54638 1.6 8.00009 1.6C6.4538 1.6 5.20016 2.85364 5.20016 4.40021C5.20016 5.9465 6.4538 7.20014 8.00009 7.20014Z" fill="white"/>
</svg>
