<svg width="14" height="17" viewBox="0 0 14 17" fill="none" xmlns="http://www.w3.org/2000/svg">
<path d="M13.0437 6.6808L2.99122 0.296437C2.37827 -0.0943682 1.64268 -0.0943684 1.00529 0.270444C0.392335 0.635255 0 1.3127 0 2.0945V14.8893C0 15.6449 0.367703 16.3226 1.00529 16.7133C1.29946 16.8958 1.64272 17 1.9615 17C2.30475 17 2.64801 16.8958 2.96679 16.6874L13.0438 10.2769C13.6323 9.88612 14 9.23468 14 8.47884C14 7.7492 13.6323 7.07176 13.0438 6.68075L13.0437 6.6808ZM12.0386 8.47889L1.98611 14.8893V2.06847L12.0386 8.47889Z" fill="#C233FF"/>
</svg>
