<svg width="9" height="33" viewBox="0 0 9 33" fill="none" xmlns="http://www.w3.org/2000/svg">
<path d="M4.01178 8.01986C1.79897 8.01986 0 6.22107 0 4.00808C0 1.79528 1.79904 0 4.01178 0C6.22452 0 8.02355 1.79878 8.02355 4.01178C8.02355 6.22458 6.22452 8.01986 4.01178 8.01986ZM4.01178 1.42778C2.58769 1.42778 1.42778 2.58769 1.42778 4.01178C1.42778 5.43586 2.58769 6.59577 4.01178 6.59577C5.43586 6.59577 6.59577 5.43586 6.59577 4.01178C6.59577 2.58769 5.43586 1.42778 4.01178 1.42778Z" fill="#FA169F"/>
<path d="M4.01178 20.5118C1.79897 20.5118 0 18.7131 0 16.5001C0 14.2873 1.79904 12.4883 4.01178 12.4883C6.22451 12.4883 8.02355 14.2873 8.02355 16.5001C8.02355 18.7128 6.22451 20.5118 4.01178 20.5118ZM4.01178 13.9159C2.58769 13.9159 1.42778 15.0758 1.42778 16.4999C1.42778 17.924 2.58769 19.0839 4.01178 19.0839C5.43586 19.0839 6.59577 17.924 6.59577 16.4999C6.59577 15.0758 5.43586 13.9159 4.01178 13.9159Z" fill="#FA169F"/>
<path d="M4.01178 33C1.79897 33 0 31.2012 0 28.9882C0 26.7754 1.79904 24.9801 4.01178 24.9801C6.22452 24.9801 8.02355 26.7789 8.02355 28.9919C8.02355 31.2047 6.22452 33 4.01178 33ZM4.01178 26.4079C2.58769 26.4079 1.42778 27.5678 1.42778 28.9919C1.42778 30.416 2.58769 31.5759 4.01178 31.5759C5.43586 31.5759 6.59577 30.416 6.59577 28.9919C6.59577 27.5678 5.43586 26.4079 4.01178 26.4079Z" fill="#FA169F"/>
</svg>
