<svg width="35" height="26" viewBox="0 0 35 26" fill="none" xmlns="http://www.w3.org/2000/svg">
<path fill-rule="evenodd" clip-rule="evenodd" d="M0.5 2.03516C0.5 1.20673 1.17157 0.535156 2 0.535156H33C33.8284 0.535156 34.5 1.20673 34.5 2.03516V24.0352C34.5 24.8636 33.8284 25.5352 33 25.5352H20V22.5352H31.5V3.53516H3.5V8.03516H0.5V2.03516Z" fill="#C233FF"/>
<path fill-rule="evenodd" clip-rule="evenodd" d="M0.5 10.0352H2C6.98105 10.0352 10.8625 12.2591 13.4751 15.0781C16.0436 17.8493 17.5 21.323 17.5 24.0352V25.5352H14.5V24.0352C14.5 22.2475 13.4564 19.4711 11.2749 17.1174C9.1375 14.8112 6.01895 13.0352 2 13.0352H0.5V10.0352Z" fill="#C233FF"/>
<path d="M0.5 25.5352V20.5352C4.5 20.5352 6 24.0352 6 25.5352H0.5Z" fill="#C233FF"/>
<path fill-rule="evenodd" clip-rule="evenodd" d="M0.5 15.5352H2C4.75809 15.5352 7.11832 16.9072 8.74816 18.537C10.3273 20.1162 11.5 22.2259 11.5 24.0352V25.5352H8.5V24.0352C8.5 23.3445 7.92266 21.9541 6.62684 20.6583C5.38168 19.4132 3.74191 18.5352 2 18.5352H0.5V15.5352Z" fill="#C233FF"/>
</svg>
