<svg width="35" height="27" viewBox="0 0 35 27" fill="none" xmlns="http://www.w3.org/2000/svg">
<path fill-rule="evenodd" clip-rule="evenodd" d="M27.7772 1.20841C28.2339 0.807775 28.9289 0.853216 29.3295 1.3099L33.6663 6.25339C34.0304 6.66846 34.0304 7.28915 33.6663 7.70422L29.3295 12.6477C28.9289 13.1044 28.2339 13.1498 27.7772 12.7492C27.3205 12.3486 27.2751 11.6536 27.6757 11.1969L30.4111 8.0788H24.0053C24.0051 8.0788 24.0054 8.0788 24.0053 8.0788L24.0022 8.0793C24.0009 8.07958 23.999 8.08004 23.9963 8.08077C23.9949 8.08114 23.9933 8.08158 23.9916 8.08209C23.9723 8.08783 23.9166 8.10723 23.819 8.16731C23.6139 8.29355 23.2684 8.57132 22.7441 9.16896L13.1076 20.1537C13.1076 20.1538 13.107 20.1545 12.28 19.4291L13.107 20.1545C13.0766 20.189 13.0442 20.2217 13.0098 20.2522C12.719 20.51 12.2396 20.877 11.6952 21.1864C11.1835 21.4772 10.4548 21.8107 9.71013 21.8107H2.00039C1.39288 21.8107 0.900391 21.3182 0.900391 20.7107C0.900391 20.1032 1.39288 19.6107 2.00039 19.6107H9.71013C9.86493 19.6107 10.1802 19.517 10.6082 19.2738C10.9721 19.067 11.3026 18.8184 11.5018 18.6481L21.0903 7.71813C22.2709 6.37236 23.1391 5.87881 24.0053 5.8788H30.4111L27.6757 2.76073C27.2751 2.30404 27.3205 1.60904 27.7772 1.20841Z" fill="#C233FF"/>
<path fill-rule="evenodd" clip-rule="evenodd" d="M27.9393 26.481C28.396 26.8817 29.091 26.8362 29.4917 26.3795L33.8284 21.4361C34.1925 21.021 34.1925 20.4003 33.8284 19.9852L29.4917 15.0417C29.091 14.5851 28.396 14.5396 27.9393 14.9403C27.4826 15.3409 27.4372 16.0359 27.8378 16.4926L30.5732 19.6106H24.1674C24.1672 19.6106 24.1675 19.6106 24.1674 19.6106L24.1644 19.6102C24.1631 19.6099 24.1611 19.6094 24.1584 19.6087C24.157 19.6083 24.1555 19.6079 24.1537 19.6074C24.1344 19.6016 24.0787 19.5822 23.9811 19.5221C23.776 19.3959 23.4305 19.1181 22.9062 18.5205L13.2697 7.53571C13.2697 7.53565 13.2691 7.53496 12.4422 8.26037L13.2691 7.53496C13.2388 7.5004 13.2063 7.46778 13.1719 7.43729C12.8811 7.17944 12.4017 6.81241 11.8573 6.503C11.3457 6.21221 10.6169 5.87873 9.87224 5.87873H2.1625C1.55499 5.87873 1.0625 6.37121 1.0625 6.97873C1.0625 7.58624 1.55499 8.07873 2.1625 8.07873H9.87224C10.027 8.07873 10.3423 8.17246 10.7703 8.41568C11.1342 8.6225 11.4647 8.871 11.664 9.0413L21.2524 19.9713C22.433 21.3171 23.3012 21.8106 24.1674 21.8106H30.5732L27.8378 24.9287C27.4372 25.3854 27.4826 26.0804 27.9393 26.481Z" fill="#C233FF"/>
</svg>
