<svg width="103" height="27" viewBox="0 0 103 27" fill="none" xmlns="http://www.w3.org/2000/svg">
<path d="M17 1C22.8529 4.63636 26.8956 18.2727 17 26" stroke="#C233FF" stroke-width="2" stroke-linecap="round" stroke-linejoin="round"/>
<path d="M15 20L17.9241 15.9062C19.1659 14.1677 19.1659 11.8323 17.9241 10.0938L15 6" stroke="#C233FF" stroke-width="2" stroke-linecap="round" stroke-linejoin="round"/>
<path d="M11 26L11 1C2.8894 6.17857 1 10.375 1 13.7976C1.69124 20.494 8.26575 24.7351 11 26Z" stroke="#C233FF" stroke-width="2" stroke-linecap="round" stroke-linejoin="round"/>
<rect x="103" y="9" width="8" height="72" rx="4" transform="rotate(90 103 9)" fill="#C233FF"/>
<path d="M36.4199 13L96.0003 13" stroke="#12130F" stroke-width="5" stroke-linecap="round"/>
<path d="M36 13L84.2517 13" stroke="#F8F8F8" stroke-width="5" stroke-linecap="round"/>
<circle cx="86" cy="13" r="5" transform="rotate(90 86 13)" fill="#F8F8F8"/>
</svg>
